<!DOCTYPE svg PUBLIC "-//W3C//DTD SVG 1.1//EN" "http://www.w3.org/Graphics/SVG/1.1/DTD/svg11.dtd">
<svg version='1.1' xmlns='http://www.w3.org/2000/svg' xmlns:xlink='http://www.w3.org/1999/xlink' width="200" height="200"><g transform="translate(100, 100) translate(0, 0) rotate(132)">
<style>text{font: 13px sans-serif;}line{stroke:rgb(20,90,20);stroke-width:3;}rect{fill:rgb(180,180,190);stroke:rgb(0,0,0);}</style>
<rect width="16" height="130" x="-8" y="-65"></rect><g transform="translate(0, 78)"><line x1="0" x2="0" y1="0" y2="15"></line><line x1="0" y1="15" y2="15" x2="-15"></line><text x="-7" y="-2">12</text></g><g transform="translate(0, -78) rotate(180)"><line x1="0" x2="0" y1="0" y2="15"></line><line x1="0" y1="15" y2="15" x2="-15"></line><text x="-7" y="-2">30</text></g></g><g transform="translate(100, 100) rotate(0) translate(0, -22.74431392151962) rotate(-0) rotate(090)"><rect width="16" height="111.70707323169208" x="-8" y="-55.85353661584604"></rect><g transform="translate(0, 68.85353661584604)"><line x1="0" x2="0" y1="0" y2="15"></line><line x1="0" y1="15" y2="15" x2="-15"></line><text x="-3.5" y="-2">8</text></g><g transform="translate(0, -68.85353661584604) rotate(180)"><line x1="0" x2="0" y1="0" y2="15"></line><line x1="0" y1="15" y2="15" x2="-15"></line><text x="-7" y="-2">26</text></g></g></svg>
